<svg width="24" height="24" viewBox="0 0 24 24" fill="none" xmlns="http://www.w3.org/2000/svg">
  <path d="M15.0085 7.74883C15.1199 7.74883 15.2924 7.76209 15.5258 7.78862C15.7646 7.80985 16.0352 7.86821 16.3376 7.96372C16.6401 8.05923 16.9478 8.2131 17.2609 8.42534C17.5739 8.63758 17.8631 8.93472 18.1284 9.31675C18.1019 9.33267 18.0011 9.4043 17.826 9.53164C17.6562 9.65898 17.4625 9.84469 17.245 10.0888C17.0274 10.3275 16.8364 10.6326 16.6719 11.0041C16.5127 11.3702 16.4332 11.8079 16.4332 12.3173C16.4332 12.9009 16.534 13.3944 16.7356 13.7977C16.9425 14.2009 17.1813 14.5272 17.4519 14.7766C17.7278 15.026 17.9719 15.209 18.1841 15.3258C18.4017 15.4372 18.5184 15.4956 18.5343 15.5009C18.529 15.5221 18.4892 15.6415 18.4149 15.859C18.3407 16.0713 18.2239 16.3472 18.0647 16.6868C17.9109 17.021 17.7092 17.3712 17.4599 17.7374C17.2317 18.061 16.9956 18.3714 16.7515 18.6686C16.5127 18.9657 16.2501 19.2071 15.9636 19.3928C15.6824 19.5838 15.364 19.6793 15.0085 19.6793C14.7379 19.6793 14.5071 19.6475 14.3161 19.5838C14.125 19.5202 13.942 19.4459 13.7669 19.361C13.5971 19.2814 13.4087 19.2098 13.2018 19.1461C12.9949 19.0824 12.7375 19.0506 12.4298 19.0506C12.0265 19.0506 11.6896 19.1036 11.419 19.2098C11.1537 19.3212 10.9017 19.43 10.6629 19.5361C10.4241 19.6422 10.1429 19.6953 9.81924 19.6953C9.32578 19.6953 8.89069 19.4989 8.51397 19.1063C8.14255 18.7137 7.76051 18.2441 7.36787 17.6976C7.06543 17.2625 6.78952 16.7611 6.54014 16.1933C6.29076 15.6256 6.09178 15.0233 5.94321 14.3866C5.79465 13.7499 5.72036 13.1132 5.72036 12.4765C5.72036 11.4577 5.91403 10.6008 6.30137 9.90571C6.6887 9.21063 7.18481 8.68534 7.7897 8.32983C8.39458 7.97433 9.02334 7.79658 9.67598 7.79658C10.0209 7.79658 10.3445 7.8523 10.647 7.96372C10.9547 8.07515 11.2412 8.18923 11.5065 8.30596C11.7718 8.41738 12.0133 8.4731 12.2308 8.4731C12.4377 8.4731 12.6818 8.41473 12.963 8.298C13.2443 8.17596 13.5547 8.05392 13.8942 7.93189C14.2391 7.80985 14.6105 7.74883 15.0085 7.74883ZM14.4514 6.45947C14.1861 6.78314 13.8518 7.05109 13.4485 7.26333C13.0506 7.47557 12.6739 7.58169 12.3184 7.58169C12.2441 7.58169 12.1724 7.57373 12.1035 7.55781C12.0982 7.53659 12.0902 7.49945 12.0796 7.44639C12.0743 7.39333 12.0716 7.33496 12.0716 7.27129C12.0716 6.86803 12.1592 6.47539 12.3343 6.09336C12.5094 5.71133 12.711 5.39297 12.9392 5.13828C13.2204 4.804 13.5759 4.52544 14.0057 4.30259C14.4408 4.07974 14.8573 3.96035 15.2552 3.94443C15.2711 4.03464 15.2791 4.1381 15.2791 4.25483C15.2791 4.6634 15.2022 5.06135 15.0483 5.44868C14.8944 5.83071 14.6954 6.16764 14.4514 6.45947Z" fill="white"/>
</svg>
