<svg width="83" height="83" viewBox="0 0 83 83" fill="none" xmlns="http://www.w3.org/2000/svg">
  <g filter="url(#filter0_d_103_7)">
    <circle cx="41.5" cy="37.5" r="37.5" fill="#535353"/>
  </g>
  <path d="M49.6598 26.2946C49.1995 26.2946 48.7629 26.3964 48.37 26.5774C48.1034 25.1413 46.8421 24.0501 45.3299 24.0501C44.8548 24.0501 44.4047 24.158 44.002 24.3502C43.6685 23.0024 42.4494 22 41 22C39.5506 22 38.3315 23.0024 37.9979 24.3502C37.5954 24.158 37.1451 24.0501 36.6701 24.0501C34.9647 24.0501 33.5773 25.4375 33.5773 27.1429V34.703C33.1982 34.5368 32.7799 34.444 32.3402 34.444C30.6348 34.444 29.2474 35.8314 29.2474 37.5368V43.8969C29.2474 48.3649 32.8824 52 37.3505 52H44.6495C49.1175 52 52.7526 48.3649 52.7526 43.8969V29.3874C52.7526 27.6819 51.3651 26.2946 49.6598 26.2946ZM50.8969 43.8969C50.8969 47.3417 48.0943 50.1443 44.6495 50.1443H37.3505C33.9057 50.1443 31.1031 47.3417 31.1031 43.8969V37.5368C31.1031 36.8546 31.6581 36.2997 32.3402 36.2997C33.0223 36.2997 33.5773 36.8546 33.5773 37.5368V42.4852H35.433V27.1429C35.433 26.4607 35.988 25.9058 36.6701 25.9058C37.3522 25.9058 37.9072 26.4607 37.9072 27.1429V36.9182H39.7629V25.0928C39.7629 24.4106 40.3178 23.8557 41 23.8557C41.6821 23.8557 42.2371 24.4106 42.2371 25.0928V36.9182H44.0928V27.1429C44.0928 26.4607 44.6477 25.9058 45.3299 25.9058C46.012 25.9058 46.567 26.4607 46.567 27.1429V36.9182H48.4227V29.3873C48.4227 28.7052 48.9776 28.1502 49.6598 28.1502C50.3419 28.1502 50.8969 28.7052 50.8969 29.3873V43.8969Z" fill="white"/>
  <defs>
    <filter id="filter0_d_103_7" x="0" y="0" width="83" height="83" filterUnits="userSpaceOnUse" color-interpolation-filters="sRGB">
      <feFlood flood-opacity="0" result="BackgroundImageFix"/>
      <feColorMatrix in="SourceAlpha" type="matrix" values="0 0 0 0 0 0 0 0 0 0 0 0 0 0 0 0 0 0 127 0" result="hardAlpha"/>
      <feOffset dy="4"/>
      <feGaussianBlur stdDeviation="2"/>
      <feComposite in2="hardAlpha" operator="out"/>
      <feColorMatrix type="matrix" values="0 0 0 0 0 0 0 0 0 0 0 0 0 0 0 0 0 0 0.25 0"/>
      <feBlend mode="normal" in2="BackgroundImageFix" result="effect1_dropShadow_103_7"/>
      <feBlend mode="normal" in="SourceGraphic" in2="effect1_dropShadow_103_7" result="shape"/>
    </filter>
  </defs>
</svg>
